# xmcd CD database file generated by Grip 2.95
# 
# Track frame offsets:
#       150
#       12065
#       23517
#       39200
#       54605
#       69692
#       82077
#       94100
#       105855
#       120335
#       129872
#       140392
#       184127
#       199482
#       209180
# 
# Disc length: 3074 seconds
# 
# Revision: 3
# Processed by: cddbd v1.4b41PL1 Copyright (c) Steve Scherf et al.
# Submitted via: Grip 2.95
# 
DISCID=c70c000f
DTITLE=Mike Cross - Live and kickin'
DYEAR=1900
DGENRE=
TTITLE0=Busted Man
TTITLE1=Elma Turl
TTITLE2=Old Paint Peeling
TTITLE3=App. Rap--Grub Spring
TTITLE4=Kentucky Song
TTITLE5=Down at the Lodge
TTITLE6=Whiskey 'fore Breakfast
TTITLE7=Jelly Roll Baker
TTITLE8=Bounty Hunter
TTITLE9=Carrboro Crossing
TTITLE10=The Scotsman
TTITLE11=Good Night Medley
TTITLE12=Rocky Top Bar-B-Que
TTITLE13=Greensleeves
TTITLE14=Gospel Medley
EXTD=
EXTT0=
EXTT1=
EXTT2=
EXTT3=
EXTT4=
EXTT5=
EXTT6=
EXTT7=
EXTT8=
EXTT9=
EXTT10=
EXTT11=
EXTT12=
EXTT13=
EXTT14=
PLAYORDER=
